<svg className='h-12 w-auto' viewBox="0 0 111 111" fill="none" xmlns="http://www.w3.org/2000/svg">
              <g clipPath="url(#clip0_7_5940)">
                <path d="M0 44.5512C0 22.2551 18.0745 4.18057 40.3706 4.18057H110.476V65.4481C110.476 87.7442 92.4017 105.819 70.1056 105.819H0L0 44.5512Z" fill="#010202" />
                <path d="M49.9854 35.6371C50.5068 35.6362 51.0282 35.6353 51.5654 35.6343C53.2777 35.633 54.9898 35.6411 56.702 35.6496C57.8941 35.6516 59.0862 35.6518 60.2783 35.6521C62.77 35.6537 65.2616 35.6603 67.7533 35.6703C70.9548 35.6831 74.1562 35.6876 77.3577 35.6896C80.1114 35.6914 82.865 35.6969 85.6187 35.703C86.5042 35.7048 87.3898 35.7061 88.2753 35.7073C89.9194 35.7104 91.5634 35.7164 93.2075 35.7234C93.6997 35.7239 94.1918 35.7244 94.6989 35.7249C95.1436 35.7274 95.5884 35.7299 96.0467 35.7325C96.4354 35.7338 96.8241 35.7351 97.2246 35.7365C98.103 35.7946 98.103 35.7946 98.5449 36.2365C98.5865 37.1313 98.5968 38.0276 98.5951 38.9234C98.595 39.4984 98.595 40.0735 98.595 40.666C98.5927 41.2983 98.5904 41.9306 98.588 42.563C98.5872 43.2063 98.5866 43.8497 98.5861 44.4931C98.5845 46.1894 98.5801 47.8858 98.5752 49.5821C98.5707 51.3119 98.5687 53.0417 98.5665 54.7715C98.5617 58.1677 98.5448 61.6462 98.3239 64.9604C98.1029 66.2862 98.3239 64.9604 98.1029 66.2862C98.0346 67.0107 97.9517 67.3145 97.882 68.0538C97.2191 70.4842 96.793 71.1691 95.8935 73.3565C95.6724 73.8939 95.7996 73.5776 95.4515 74.4614C95.333 74.7622 94.9107 75.6982 94.7886 76.0081C94.2862 77.2509 93.8441 77.8401 93.021 78.8804C92.1234 80.0268 92.1372 80.2062 91.0324 81.5319C90.1486 82.6366 90.3696 82.4157 89.2648 83.5204C88.9217 83.8635 88.8784 84.0451 88.381 84.6252C87.9391 85.0671 88.16 84.8462 87.4972 85.2881C87.2762 85.509 87.2762 85.509 87.0553 85.73C86.8343 85.9509 86.8343 85.9509 86.6134 86.1719C86.3924 86.3928 86.1715 86.6138 85.7296 86.8347C85.5086 87.0557 85.2877 87.2766 85.0667 87.4976C84.4039 87.9395 84.8458 87.7185 83.741 88.3814C82.8572 89.0442 82.8572 89.0442 81.7524 89.707C81.3105 89.9721 81.1988 90.0357 80.6477 90.37C79.7967 90.8861 79.7138 90.8032 78.6591 91.2538C78.1421 91.4819 77.8608 91.6839 77.3334 91.9166C76.3063 92.2567 77.4767 91.7974 75.5658 92.5795C74.682 93.0212 75.1238 92.5796 74.24 93.0214C67.8431 95.053 62.0209 94.3697 55.3575 94.3198C53.8432 94.3102 52.329 94.3106 50.8146 94.3098C48.2816 94.3069 45.7487 94.2976 43.2157 94.2836C39.9619 94.2657 36.708 94.2581 33.4541 94.2539C30.649 94.2502 27.8438 94.2426 25.0386 94.234C24.4377 94.2322 23.8368 94.2305 23.2358 94.229C21.2687 94.2241 19.3016 94.2152 17.3345 94.2042C16.8355 94.203 16.3365 94.2018 15.8224 94.2006C15.1462 94.1959 15.1462 94.1959 14.4563 94.191C13.8654 94.1882 13.8654 94.1882 13.2626 94.1853C12.3734 94.126 12.3734 94.126 11.9315 93.6841C11.8928 92.7682 11.8843 91.851 11.8884 90.9343C11.8898 90.3775 11.8912 89.8206 11.8927 89.2469C11.8964 88.6546 11.9001 88.0622 11.9039 87.4698C11.9061 86.8757 11.9082 86.2816 11.91 85.6875C11.9152 84.2286 11.9225 82.7697 11.9315 81.3108C12.1958 81.3089 12.4601 81.307 12.7323 81.3051C19.1803 81.2593 25.6283 81.2113 32.0762 81.1608C35.1944 81.1365 38.3127 81.1128 41.431 81.091C44.4424 81.0699 47.4538 81.0467 50.4651 81.0222C51.6119 81.0133 52.7586 81.005 53.9054 80.9974C55.5162 80.9867 57.127 80.9734 58.7377 80.9596C59.2079 80.9571 59.678 80.9545 60.1623 80.9519C67.0926 80.8846 73.5879 80.2385 78.9354 75.4003C79.2817 75.0175 79.628 74.6347 79.9849 74.2403C80.1928 74.0341 80.4007 73.8279 80.6149 73.6154C87.0259 66.8897 85.8693 57.8166 86.1716 49.0517C72.7553 49.0517 59.3391 49.0517 45.5163 49.0517C44.6324 49.0519 45.6129 49.0517 44.6324 49.0519C44.6324 49.9357 44.6324 49.0519 44.6325 49.9355C44.6325 51.248 44.6324 51.2349 44.6324 52.5871C46.4001 54.7965 44.6324 52.5871 46.4001 54.7965C48.8303 56.9865 51.0269 59.4108 53.153 61.8929C54.5124 63.4283 55.9855 64.8495 57.4477 66.286C57.7992 66.6386 58.1507 66.9912 58.5128 67.3545C59.2813 68.1207 60.0571 68.8796 60.8397 69.6314C61.2242 70.0039 61.6087 70.3765 62.0049 70.7603C62.5902 71.3225 62.5902 71.3225 63.1873 71.8961C64.0763 72.9146 64.0763 72.9146 64.0763 74.2403C59.9355 74.2505 55.7947 74.2584 51.6539 74.2632C49.7313 74.2655 47.8088 74.2686 45.8863 74.2736C44.0324 74.2784 42.1786 74.2811 40.3248 74.2822C39.616 74.283 38.9071 74.2846 38.1983 74.287C37.2089 74.2902 36.2195 74.2907 35.23 74.2905C34.6658 74.2914 34.1016 74.2924 33.5202 74.2934C32.2592 74.2403 32.2592 74.2403 31.8173 73.7984C31.7595 72.9657 31.7327 72.1308 31.718 71.2963C31.7081 70.7606 31.6981 70.225 31.6878 69.6731C31.6544 67.208 31.6309 64.743 31.614 62.2778C31.6042 60.9789 31.5858 59.6805 31.5596 58.3818C31.528 56.811 31.512 55.2408 31.5066 53.6697C31.4998 52.7853 31.4778 51.901 31.4555 51.0168C31.4639 47.1301 31.5778 43.8837 34.2477 41.0976C33.9405 41.434 34.9105 40.4058 34.2477 41.0976C35.1585 39.672 37.0644 38.549 38.4458 37.5623C39.1086 37.1199 38.8877 37.3412 39.7715 36.8995C40.6554 36.4574 40.4343 36.6781 40.8762 36.457C44.0178 35.1463 46.6074 35.6087 49.9854 35.6371Z" fill="#FBFBFB" />
                <path d="M43.9685 16.2427C44.6925 16.2409 44.6925 16.2409 45.4312 16.239C45.9563 16.2422 46.4814 16.2454 47.0224 16.2486C47.5787 16.2485 48.1351 16.2484 48.7083 16.2483C50.2301 16.248 51.7519 16.2532 53.2738 16.2594C54.8656 16.2649 56.4574 16.2654 58.0492 16.2665C61.0618 16.2692 64.0745 16.2765 67.0871 16.2853C70.5176 16.2952 73.9481 16.3001 77.3786 16.3045C84.4339 16.3137 91.4891 16.3299 98.5443 16.349C98.5443 20.4322 98.5443 24.5154 98.5443 28.7223C96.95 28.7311 95.3557 28.7398 93.7131 28.7489C88.4357 28.7785 83.1584 28.8127 77.8811 28.8494C74.6826 28.8715 71.4842 28.892 68.2856 28.9087C65.4959 28.9234 62.7062 28.941 59.9165 28.9622C58.4411 28.9733 56.9658 28.9825 55.4903 28.9889C53.8382 28.9964 52.1862 29.0093 50.5341 29.0233C50.0516 29.0243 49.5691 29.0252 49.072 29.0262C46.4028 29.055 43.912 29.299 41.3001 29.8596C40.1798 30.0538 40.8762 29.8276 38.8876 30.4904C38.0038 30.9323 38.4457 30.7114 38.0034 30.9318C37.7203 31.0503 37.4372 31.1688 37.1455 31.2909C34.1967 32.6269 32.453 34.134 30.491 36.6766C30.0777 37.147 29.6635 37.6166 29.2481 38.0852C28.35 39.2399 27.6683 39.957 27.1771 41.3171C26.8855 41.6088 26.9562 41.759 26.5139 42.4214C26.2933 43.0847 26.1381 43.2687 26.0724 43.7476C25.3823 45.4329 25.4123 45.3368 25.1886 46.8409C24.1113 49.2821 24.5426 51.8806 24.5356 54.5012C24.5253 55.3464 24.5253 55.3464 24.5148 56.2087C24.4974 57.6978 24.4853 59.1868 24.4761 60.676C24.4621 62.7833 24.4394 64.8904 24.4158 66.9976C24.4038 68.1184 24.3944 69.2392 24.3878 70.36C24.381 71.1147 24.381 71.1147 24.374 71.8846C24.3712 72.3296 24.3683 72.7746 24.3653 73.2331C24.3043 74.2385 24.3043 74.2385 23.8624 74.6804C22.9788 74.7191 22.0938 74.7277 21.2093 74.7236C20.6724 74.7221 20.1355 74.7207 19.5823 74.7192C19.017 74.7155 18.4516 74.7118 17.8691 74.708C17.302 74.706 16.7349 74.704 16.1507 74.702C14.7441 74.6968 13.3376 74.6895 11.931 74.6804C11.9105 70.8811 11.8948 67.0818 11.8852 63.2825C11.8806 61.5181 11.8744 59.7537 11.8643 57.9892C11.8547 56.2844 11.8494 54.5796 11.8471 52.8747C11.8455 52.2264 11.8424 51.5781 11.8376 50.9298C11.8146 47.6883 11.8021 44.6493 12.8148 41.5376C13.0362 40.8752 13.0362 41.0962 13.2571 40.6543C13.3323 40.4082 13.6216 39.5821 13.699 39.3285C14.3477 37.2859 14.8997 36.3591 15.9086 34.4676C16.4339 33.4596 16.3505 33.5838 17.2343 32.2581C17.9937 30.4671 19.2434 29.4825 20.5758 28.0871C20.7942 27.8481 21.0127 27.6091 21.2378 27.3629C21.7969 26.7645 22.3857 26.194 22.9786 25.629C23.2 25.4085 23.092 25.5165 23.4209 25.1876C23.6419 24.9666 23.5865 25.0199 23.8624 24.7452C24.0838 24.5247 23.8628 24.7457 24.3048 24.3038C24.5257 24.0828 24.5257 24.0828 24.7462 23.8614C25.7975 23.1605 25.7975 23.1605 27.2043 22.3699C28.6746 21.5432 30.1259 20.7189 31.5405 19.8014C33.489 18.6776 35.6248 18.0256 37.7828 17.4543C39.195 17.094 39.1086 17.0123 40.3733 16.7718C41.6532 16.3074 42.6104 16.2401 43.9685 16.2427Z" fill="#00C797" />
              </g>
              <defs>
                <clipPath id="clip0_7_5940">
                  <rect width="110.476" height="110.476" fill="white" />
                </clipPath>
              </defs>
            </svg>